<?xml version="1.0" encoding="UTF-8" standalone="no"?>
<svg
   xmlns:dc="http://purl.org/dc/elements/1.1/"
   xmlns:cc="http://creativecommons.org/ns#"
   xmlns:rdf="http://www.w3.org/1999/02/22-rdf-syntax-ns#"
   xmlns:svg="http://www.w3.org/2000/svg"
   xmlns="http://www.w3.org/2000/svg"
   xmlns:sodipodi="http://sodipodi.sourceforge.net/DTD/sodipodi-0.dtd"
   xmlns:inkscape="http://www.inkscape.org/namespaces/inkscape"
   version="1.1"
   viewBox="0 0 377 71"
   width="377.0pt"
   height="71.0pt"
   id="svg62"
   sodipodi:docname="bardia_logo.svg"
   inkscape:version="0.92.3 (2405546, 2018-03-11)">
  <metadata
     id="metadata68">
    <rdf:RDF>
      <cc:Work
         rdf:about="">
        <dc:format>image/svg+xml</dc:format>
        <dc:type
           rdf:resource="http://purl.org/dc/dcmitype/StillImage" />
        <dc:title />
      </cc:Work>
    </rdf:RDF>
  </metadata>
  <defs
     id="defs66" />
  <sodipodi:namedview
     pagecolor="#ffffff"
     bordercolor="#666666"
     borderopacity="1"
     objecttolerance="10"
     gridtolerance="10"
     guidetolerance="10"
     inkscape:pageopacity="0"
     inkscape:pageshadow="2"
     inkscape:window-width="1636"
     inkscape:window-height="1053"
     id="namedview64"
     showgrid="false"
     inkscape:zoom="0.70616898"
     inkscape:cx="174.67215"
     inkscape:cy="-11.405509"
     inkscape:window-x="0"
     inkscape:window-y="0"
     inkscape:window-maximized="0"
     inkscape:current-layer="svg62" />
  <path
     style="fill:#000000;stroke-width:1.33333325"
     d="M 65.359375 5.6660156 C 56.999375 23.679349 48.65289 41.693021 40.212891 59.679688 C 42.999557 59.666354 45.77388 59.66763 48.560547 59.654297 C 50.400547 55.54763 52.292813 51.45237 54.132812 47.345703 C 61.386146 47.33237 68.652917 47.347318 75.90625 47.333984 C 77.692917 51.453984 79.440912 55.586693 81.267578 59.693359 C 84.040911 59.680026 86.826276 59.679688 89.599609 59.679688 C 81.546276 41.666355 73.466041 23.652682 65.359375 5.6660156 z M 65.240234 22.800781 L 65.453125 23.292969 C 67.933125 28.839635 70.347109 34.426667 72.787109 40 L 57.373047 40 C 59.959713 34.253333 62.613568 28.534114 65.240234 22.800781 z "
     id="path4"
     transform="scale(0.75000002)" />
  <path
     style="fill:#000000;stroke-width:1.33333325"
     d="M 333.35938 5.6542969 C 324.99938 23.680963 316.65323 41.693021 308.22656 59.679688 C 310.9999 59.666354 313.77388 59.66763 316.56055 59.654297 C 318.40055 55.54763 320.29281 51.45237 322.13281 47.345703 C 329.39948 47.33237 336.65292 47.347318 343.90625 47.333984 C 345.69292 51.453984 347.44091 55.586693 349.26758 59.693359 C 352.04091 59.680026 354.82628 59.679688 357.59961 59.679688 C 349.54628 41.666355 341.46604 23.640963 333.35938 5.6542969 z M 333.24023 22.800781 L 333.45312 23.292969 C 335.93312 28.839635 338.34711 34.426667 340.78711 40 L 325.38672 40 C 327.96005 34.253333 330.61357 28.534114 333.24023 22.800781 z "
     id="path6"
     transform="scale(0.75000002)" />
  <path
     style="fill:#000000;stroke-width:1.33333325"
     d="M 224.45312 5.5859375 C 223.85313 6.8526041 223.2543 8.1203907 222.6543 9.4003906 C 214.8143 26.147057 207.09289 42.946355 199.21289 59.679688 C 201.99956 59.666354 204.78721 59.66763 207.56055 59.654297 C 209.40055 55.54763 211.29281 51.453984 213.13281 47.333984 L 234.90625 47.333984 C 236.70625 51.453984 238.4669 55.573359 240.24023 59.693359 C 243.04023 59.680026 245.84063 59.679688 248.64062 59.679688 C 240.57396 41.653021 232.34646 23.67927 224.45312 5.5859375 z M 224.24023 22.773438 C 226.76023 28.506771 229.28044 34.253333 231.78711 40 L 216.37305 40 C 218.42638 35.52 220.45253 31.026875 222.50586 26.546875 C 223.07919 25.293542 223.6669 24.026771 224.24023 22.773438 z "
     id="path8"
     transform="scale(0.75000002)" />
  <path
     d="M 219.98 6.18 C 223.95 6.82 225.98 9.50 228.33 12.43 C 226.79 13.31 225.25 14.19 223.70 15.08 C 221.72 12.90 220.27 11.01 216.96 11.53 C 213.46 11.79 210.58 15.67 213.25 18.68 C 216.74 21.68 222.05 22.20 225.57 25.42 C 230.14 29.35 230.00 36.86 226.27 41.30 C 221.97 46.44 213.46 46.99 208.54 42.44 C 206.08 40.19 205.40 37.32 204.51 34.24 C 206.41 33.80 208.32 33.37 210.22 32.95 C 211.18 35.74 211.29 38.38 214.41 39.59 C 219.00 41.28 223.70 38.01 223.26 33.03 C 222.86 28.41 217.73 27.35 214.28 25.69 C 210.04 23.92 206.47 20.98 206.48 16.00 C 206.47 9.01 213.63 4.99 219.98 6.18 Z"
     id="path10"
     fill="#000000" />
  <path
     style="fill:#000000;stroke-width:1.33333325"
     d="M 13.857422 8.9570312 C 11.628047 8.9575782 9.4189843 9.025 7.3339844 9 L 7.3339844 59.666016 C 13.800651 59.492682 20.705729 60.253854 27.039062 58.867188 C 34.58573 56.84052 39.372552 49.08073 37.199219 41.414062 C 36.172552 36.920729 32.973385 34.680573 29.386719 32.253906 C 30.800052 29.960573 32.345911 27.867161 32.892578 25.173828 C 33.785911 19.253828 30.426015 12.386901 24.666016 10.240234 C 21.341016 9.1402348 17.573047 8.9561198 13.857422 8.9570312 z M 16.4375 16.271484 C 19.491615 16.236302 22.752682 16.619245 24.666016 19.267578 C 26.239349 22.094245 26.146276 26.653594 23.599609 28.933594 C 21.412943 30.733594 17.720677 30.54625 15.027344 30.90625 C 15.040677 26.052917 14.799818 21.146641 15.146484 16.306641 C 15.569818 16.289974 16.001198 16.27651 16.4375 16.271484 z M 15 37.240234 C 18.666667 37.400234 23.25388 37.054115 26.560547 38.800781 C 30.627213 41.200781 31.239271 47.160573 27.585938 50.253906 C 24.185937 52.893906 19.067005 52.253724 15.013672 52.400391 C 15.000339 47.347057 15 42.293568 15 37.240234 z "
     transform="scale(0.75000002)"
     id="path12" />
  <path
     style="fill:#000000;stroke-width:1.33333325"
     d="M 104.65234 8.9648438 C 101.62359 8.9332031 98.635 9.06 96 9 L 96 59.679688 C 98.56 59.666354 101.11935 59.666016 103.66602 59.666016 C 103.70602 52.439349 103.52018 45.187604 103.85352 37.960938 C 109.70685 44.694271 114.42729 52.413959 119.64062 59.640625 C 122.81396 59.667292 125.97315 59.666354 129.14648 59.679688 C 123.94648 52.559688 118.74586 45.439375 113.50586 38.359375 C 116.35919 36.999375 119.32005 35.933724 121.38672 33.400391 C 126.61339 27.093724 125.71935 16.666068 118.66602 12.052734 C 114.85768 9.5110678 109.70026 9.0175781 104.65234 8.9648438 z M 103.69336 16.146484 C 106.97336 16.399818 111.1594 16.267005 114.05273 18.013672 C 118.62607 20.933672 117.81336 29.37237 112.69336 31.345703 C 109.96003 32.439036 106.58635 32.280807 103.67969 32.494141 C 103.66635 27.054141 103.66669 21.599818 103.69336 16.146484 z "
     id="path14"
     transform="scale(0.75000002)" />
  <path
     style="fill:#000000;stroke-width:1.33333325"
     d="M 146.77148 8.96875 C 143.25648 8.9270833 139.72065 9.0533333 136.33398 9 C 136.33398 25.893333 136.32065 42.772683 136.33398 59.666016 C 146.48065 59.426016 157.74622 61.253307 166.21289 54.306641 C 175.90622 47.106641 178.08057 33.426771 173.25391 22.773438 C 170.12057 16.400104 164.05341 11.480599 157.08008 9.9472656 C 153.78008 9.220599 150.28648 9.0104167 146.77148 8.96875 z M 144.03906 16.226562 C 150.1724 16.373229 156.10698 16.294011 161.32031 20.027344 C 170.13365 26.547344 170.35987 41.613906 161.5332 48.253906 C 156.43987 52.627239 150.32034 52.254063 144.01367 52.414062 C 144.00034 40.347396 143.95906 28.293229 144.03906 16.226562 z "
     id="path16"
     transform="scale(0.75000002)" />
  <path
     d="M 138.75 6.75 C 140.67 6.75 142.58 6.75 144.50 6.75 C 144.50 19.42 144.51 32.09 144.50 44.76 C 142.58 44.75 140.67 44.75 138.75 44.75 C 138.74 32.09 138.75 19.42 138.75 6.75 Z"
     id="path18"
     fill="#000000" />
  <path
     d="M 273.00 6.75 C 280.00 6.75 287.00 6.75 294.00 6.75 C 294.00 8.58 294.00 10.42 294.00 12.25 C 288.92 12.25 283.84 12.25 278.75 12.25 C 278.75 15.25 278.75 18.25 278.76 21.24 C 283.67 21.25 288.59 21.24 293.50 21.25 C 293.50 23.08 293.50 24.92 293.50 26.75 C 288.59 26.76 283.67 26.75 278.76 26.76 C 278.75 30.92 278.75 35.08 278.75 39.25 C 283.83 39.25 288.92 39.25 294.00 39.25 C 294.00 41.08 294.00 42.92 294.00 44.76 C 287.00 44.75 280.00 44.75 273.00 44.75 C 273.00 32.09 273.00 19.42 273.00 6.75 Z"
     id="path20"
     fill="#000000" />
  <path
     d="M 301.50 6.75 C 308.50 6.75 315.50 6.75 322.50 6.75 C 322.50 8.58 322.50 10.42 322.50 12.25 C 317.42 12.25 312.33 12.25 307.25 12.25 C 307.25 15.25 307.25 18.24 307.25 21.24 C 312.17 21.25 317.08 21.25 322.00 21.24 C 322.00 23.08 322.00 24.92 322.00 26.75 C 317.09 26.75 312.17 26.75 307.25 26.75 C 307.25 30.92 307.25 35.08 307.25 39.24 C 312.33 39.25 317.42 39.25 322.50 39.25 C 322.50 41.08 322.50 42.92 322.50 44.75 C 315.50 44.76 308.50 44.75 301.50 44.75 C 301.50 32.09 301.50 19.42 301.50 6.75 Z"
     id="path22"
     fill="#000000" />
  <path
     style="fill:#000000;stroke-width:1.33333325"
     d="M 450.60352 8.9667969 C 447.03018 8.9201302 443.43333 9.0533333 440 9 C 440 25.893333 439.98667 42.772683 440 59.666016 C 449.86667 59.412682 460.9857 61.200364 469.3457 54.707031 C 479.9457 47.333698 482.14607 32.053151 476.05273 21.146484 C 472.7594 15.719818 467.30641 11.453672 461.06641 10.013672 C 457.72641 9.2403386 454.17685 9.0134635 450.60352 8.9667969 z M 447.67969 16.226562 C 453.69302 16.386562 459.14672 16.25362 464.38672 19.626953 C 473.69339 25.81362 474.25372 41.240417 465.40039 48.09375 C 460.21372 52.61375 454.13302 52.252448 447.67969 52.425781 C 447.66635 40.359115 447.66635 28.293229 447.67969 16.226562 z "
     id="path24"
     transform="scale(0.75000002)" />
  <path
     d="M 366.50 6.75 C 368.42 6.75 370.33 6.75 372.25 6.75 C 372.25 19.42 372.25 32.09 372.25 44.75 C 370.33 44.75 368.42 44.75 366.50 44.76 C 366.49 32.09 366.50 19.42 366.50 6.75 Z"
     id="path26"
     fill="#000000" />
  <path
     d="M 6.01 57.50 C 56.00 57.50 106.00 57.50 155.99 57.50 C 156.00 58.33 156.00 59.16 156.00 60.00 C 106.00 60.00 56.00 60.00 6.00 60.00 C 6.00 59.16 6.00 58.33 6.01 57.50 Z"
     id="path56"
     fill="#000000" />
  <path
     d="M 370.50 57.50 L 370.50 60.00 C 320.83 60.00 271.17 60.00 221.50 60.00 L 221.50 57.50 C 271.17 57.49 320.83 57.49 370.50 57.50 Z"
     id="path58"
     fill="#000000" />
  <g
     id="g38"
     transform="matrix(0.26966836,0,0,0.26966836,158.53745,47.832196)">
    <path
       style="fill:#000000"
       inkscape:connector-curvature="0"
       id="path6-3"
       d="m 193.74116,7.3188047 c 2.1,-0.18 4.23,-0.12 6.33,-0.13 0.01,4.2300003 0.01,8.4500003 0.01,12.6800003 4.21,0 8.41,0 12.62,0 0,1.83 0,3.65 -0.01,5.47 -4.2,0 -8.41,0 -12.61,0 0.01,8.49 -0.02,16.99 -0.01,25.47 0.09,2.95 0.25,6.37 3.06,8.08 2.95,1.63 6.34,0.34 9.32,-0.48 0.08,1.89 0.17,3.77 0.26,5.66 -4.62,1.18 -9.21,2.24 -13.66,-0.16 -3.89,-1.91 -5.45,-5.95 -5.39,-10.09 -0.08,-9.48 0,-18.97 -0.03,-28.45 -3.18,-0.03 -6.37,-0.03 -9.55,-0.12 -0.01,-1.74 -0.02,-3.48 -0.03,-5.22 3.19,-0.15 6.39,-0.17 9.58,-0.19 0.06,-4.16 -0.17,-8.36 0.11,-12.5200003 z" />
    <path
       style="fill:#000000"
       inkscape:connector-curvature="0"
       id="path8-6"
       d="m 97.071155,7.2088047 c 2.21,0 4.410005,0.01 6.610005,0.02 0,4.2100003 0,8.4300003 0,12.6400003 4.25,0 8.49,-0.02 12.74,0.05 -0.01,1.8 -0.01,3.59 -0.01,5.39 -4.25,0.04 -8.49,0.03 -12.73,0.03 0.02,8.83 -0.04,17.66 0.01,26.49 0.05,2.52 0.24,5.47 2.65,6.91 3.24,1.87 6.34,0.54 9.59,-0.42 0.21,1.79 0.41,3.58 0.6,5.37 -4.74,1.91 -10.4,2.67 -14.88,-0.32 -3.540005,-2.27 -4.520005,-6.61 -4.560005,-10.55 -0.06,-9.16 0.01,-18.32 -0.02,-27.48 -3.14,0 -6.29,0 -9.43,-0.01 0.04,-1.82 0.09,-3.63 0.16,-5.45 3.09,-0.01 6.18,-0.01 9.27,-0.01 0,-4.22 0,-8.44 0,-12.6600003 z" />
    <path
       style="fill:#000000"
       inkscape:connector-curvature="0"
       id="path10-7"
       d="m 31.251155,18.848805 c 4.15,0.73 8.39,2.48 10.96,5.97 2.29,2.86 3.05,6.3 3.26,9.88 0.25,9.99 -0.35,20.21 0.51,30.16 -1.95,-0.06 -3.9,-0.13 -5.86,-0.22 -0.13,-2.46 -0.28,-4.92 -0.41,-7.37 -2.07,2.37 -3.86,4.7 -6.68,6.25 -6.74,3.85 -15.69,3.26 -21.61,-1.87 -4.0499996,-3.83 -4.6999996,-10.3 -2.5499996,-15.27 1.5399996,-3.41 4.8199996,-5.68 8.2999996,-6.78 7.1,-2.15 15.01,-2.37 22.38,-2.53 -0.47,-4.35 -0.91,-9.13 -5.3,-11.36 -6.66,-3.17 -14.93,-1.1 -20.35,3.61 -1.22,-1.47 -2.46,-2.93 -3.72,-4.37 5.75,-4.74 13.67,-7.21 21.07,-6.1 z" />
    <path
       style="fill:#000000"
       inkscape:connector-curvature="0"
       id="path12-5"
       d="m 87.701155,19.008805 c -0.34,2.04 -0.7,4.09 -1.07,6.13 -4.37,-0.27 -8.27,-0.76 -11.98,2.04 -4.2,3.36 -5.71,9.46 -5.74,14.62 -0.06,7.66 0.01,15.33 -0.02,23 -2.1,0 -4.2,0 -6.3,0 -0.12,-14.98 0.3,-29.99 -0.29,-44.96 2.05,0.03 4.1,0.06 6.15,0.12 0.05,2.51 0.1,5.02 0.14,7.53 2.26,-3.07 4.41,-5.89 8.05,-7.36 3.58,-1.78 7.2,-1.73 11.06,-1.12 z" />
    <path
       style="fill:#000000"
       inkscape:connector-curvature="0"
       id="path14-3"
       d="m 178.95116,26.548805 c -1.61,1.29 -3.22,2.59 -4.82,3.89 -1.97,-2.48 -3.89,-4.69 -7.08,-5.56 -4.09,-1.43 -10.83,-0.73 -13.14,3.45 -0.56,2.03 -0.83,5.29 1.02,6.78 3.35,2.88 8.55,3.44 12.69,4.59 4.02,1.04 8.62,3.18 10.77,6.92 2.81,5.33 1.15,12.15 -3.65,15.74 -9.13,6.5 -23.3,4.01 -29.72,-5.18 1.66,-1.28 3.33,-2.55 4.99,-3.83 4.34,5.94 11.7,8.76 18.71,5.84 4.21,-1.36 5.99,-7.55 2.79,-10.7 -3.03,-2.8 -7.18,-3.55 -11.04,-4.52 -4.49,-1.02 -9.89,-2.84 -12.17,-7.2 -2.04,-4.73 -1.09,-11.44 3.32,-14.6 8.5,-6.13 21.21,-4.18 27.33,4.38 z" />
    <path
       inkscape:connector-curvature="0"
       id="path16-5"
       d="m 129.62912,-2.0332265 a 4.6987052,4.6987052 0 0 0 -4.69921,4.697754 4.6987052,4.6987052 0 0 0 4.69921,4.6992189 4.6987052,4.6987052 0 0 0 4.69922,-4.6992189 4.6987052,4.6987052 0 0 0 -4.69922,-4.697754 z m -3.12744,21.9023445 v 44.929688 h 6.38965 V 19.869118 Z"
       style="fill:#000000;stroke-width:1" />
    <path
       style="fill:#ffffff"
       inkscape:connector-curvature="0"
       id="path18-6"
       d="m 22.901155,43.688805 c 5.32,-1.22 11.12,-1.35 16.55,-1.4 -0.09,4.31 -0.29,8.29 -2.69,12.03 -3.86,6.33 -13.91,8.33 -19.77,3.69 -2.81,-2.11 -2.86,-5.57 -2.21,-8.73 1.4,-3.3 4.85,-4.78 8.12,-5.59 z" />
  </g>
</svg>
