<?xml version="1.0" encoding="UTF-8" standalone="no"?>
<svg
   xmlns:dc="http://purl.org/dc/elements/1.1/"
   xmlns:cc="http://creativecommons.org/ns#"
   xmlns:rdf="http://www.w3.org/1999/02/22-rdf-syntax-ns#"
   xmlns:svg="http://www.w3.org/2000/svg"
   xmlns="http://www.w3.org/2000/svg"
   xmlns:sodipodi="http://sodipodi.sourceforge.net/DTD/sodipodi-0.dtd"
   xmlns:inkscape="http://www.inkscape.org/namespaces/inkscape"
   version="1.1"
   viewBox="0 0 377 71"
   width="377.0pt"
   height="71.0pt"
   id="svg62"
   sodipodi:docname="bardia_logo.svg"
   inkscape:version="0.92.3 (2405546, 2018-03-11)">
  <metadata
     id="metadata68">
    <rdf:RDF>
      <cc:Work
         rdf:about="">
        <dc:format>image/svg+xml</dc:format>
        <dc:type
           rdf:resource="http://purl.org/dc/dcmitype/StillImage" />
        <dc:title />
      </cc:Work>
    </rdf:RDF>
  </metadata>
  <defs
     id="defs66" />
  <sodipodi:namedview
     pagecolor="#ffffff"
     bordercolor="#666666"
     borderopacity="1"
     objecttolerance="10"
     gridtolerance="10"
     guidetolerance="10"
     inkscape:pageopacity="0"
     inkscape:pageshadow="2"
     inkscape:window-width="1636"
     inkscape:window-height="1022"
     id="namedview64"
     showgrid="false"
     inkscape:zoom="7.98939"
     inkscape:cx="222.46283"
     inkscape:cy="10.869042"
     inkscape:window-x="0"
     inkscape:window-y="0"
     inkscape:window-maximized="0"
     inkscape:current-layer="svg62" />
  <path
     style="fill:#000000;stroke-width:1.33333325"
     d="M 65.359375 5.6660156 C 56.999375 23.679349 48.65289 41.693021 40.212891 59.679688 C 42.999557 59.666354 45.77388 59.66763 48.560547 59.654297 C 50.400547 55.54763 52.292813 51.45237 54.132812 47.345703 C 61.386146 47.33237 68.652917 47.347318 75.90625 47.333984 C 77.692917 51.453984 79.440912 55.586693 81.267578 59.693359 C 84.040911 59.680026 86.826276 59.679688 89.599609 59.679688 C 81.546276 41.666355 73.466041 23.652682 65.359375 5.6660156 z M 65.240234 22.800781 L 65.453125 23.292969 C 67.933125 28.839635 70.347109 34.426667 72.787109 40 L 57.373047 40 C 59.959713 34.253333 62.613568 28.534114 65.240234 22.800781 z "
     id="path4"
     transform="scale(0.75000002)" />
  <path
     style="fill:#000000;stroke-width:1.33333325"
     d="M 333.35938 5.6542969 C 324.99938 23.680963 316.65323 41.693021 308.22656 59.679688 C 310.9999 59.666354 313.77388 59.66763 316.56055 59.654297 C 318.40055 55.54763 320.29281 51.45237 322.13281 47.345703 C 329.39948 47.33237 336.65292 47.347318 343.90625 47.333984 C 345.69292 51.453984 347.44091 55.586693 349.26758 59.693359 C 352.04091 59.680026 354.82628 59.679688 357.59961 59.679688 C 349.54628 41.666355 341.46604 23.640963 333.35938 5.6542969 z M 333.24023 22.800781 L 333.45312 23.292969 C 335.93312 28.839635 338.34711 34.426667 340.78711 40 L 325.38672 40 C 327.96005 34.253333 330.61357 28.534114 333.24023 22.800781 z "
     id="path6"
     transform="scale(0.75000002)" />
  <path
     style="fill:#000000;stroke-width:1.33333325"
     d="M 224.45312 5.5859375 C 223.85313 6.8526041 223.2543 8.1203907 222.6543 9.4003906 C 214.8143 26.147057 207.09289 42.946355 199.21289 59.679688 C 201.99956 59.666354 204.78721 59.66763 207.56055 59.654297 C 209.40055 55.54763 211.29281 51.453984 213.13281 47.333984 L 234.90625 47.333984 C 236.70625 51.453984 238.4669 55.573359 240.24023 59.693359 C 243.04023 59.680026 245.84063 59.679688 248.64062 59.679688 C 240.57396 41.653021 232.34646 23.67927 224.45312 5.5859375 z M 224.24023 22.773438 C 226.76023 28.506771 229.28044 34.253333 231.78711 40 L 216.37305 40 C 218.42638 35.52 220.45253 31.026875 222.50586 26.546875 C 223.07919 25.293542 223.6669 24.026771 224.24023 22.773438 z "
     id="path8"
     transform="scale(0.75000002)" />
  <path
     d="M 219.98 6.18 C 223.95 6.82 225.98 9.50 228.33 12.43 C 226.79 13.31 225.25 14.19 223.70 15.08 C 221.72 12.90 220.27 11.01 216.96 11.53 C 213.46 11.79 210.58 15.67 213.25 18.68 C 216.74 21.68 222.05 22.20 225.57 25.42 C 230.14 29.35 230.00 36.86 226.27 41.30 C 221.97 46.44 213.46 46.99 208.54 42.44 C 206.08 40.19 205.40 37.32 204.51 34.24 C 206.41 33.80 208.32 33.37 210.22 32.95 C 211.18 35.74 211.29 38.38 214.41 39.59 C 219.00 41.28 223.70 38.01 223.26 33.03 C 222.86 28.41 217.73 27.35 214.28 25.69 C 210.04 23.92 206.47 20.98 206.48 16.00 C 206.47 9.01 213.63 4.99 219.98 6.18 Z"
     id="path10"
     fill="#000000" />
  <path
     style="fill:#000000;stroke-width:1.33333325"
     d="M 13.857422 8.9570312 C 11.628047 8.9575782 9.4189843 9.025 7.3339844 9 L 7.3339844 59.666016 C 13.800651 59.492682 20.705729 60.253854 27.039062 58.867188 C 34.58573 56.84052 39.372552 49.08073 37.199219 41.414062 C 36.172552 36.920729 32.973385 34.680573 29.386719 32.253906 C 30.800052 29.960573 32.345911 27.867161 32.892578 25.173828 C 33.785911 19.253828 30.426015 12.386901 24.666016 10.240234 C 21.341016 9.1402348 17.573047 8.9561198 13.857422 8.9570312 z M 16.4375 16.271484 C 19.491615 16.236302 22.752682 16.619245 24.666016 19.267578 C 26.239349 22.094245 26.146276 26.653594 23.599609 28.933594 C 21.412943 30.733594 17.720677 30.54625 15.027344 30.90625 C 15.040677 26.052917 14.799818 21.146641 15.146484 16.306641 C 15.569818 16.289974 16.001198 16.27651 16.4375 16.271484 z M 15 37.240234 C 18.666667 37.400234 23.25388 37.054115 26.560547 38.800781 C 30.627213 41.200781 31.239271 47.160573 27.585938 50.253906 C 24.185937 52.893906 19.067005 52.253724 15.013672 52.400391 C 15.000339 47.347057 15 42.293568 15 37.240234 z "
     transform="scale(0.75000002)"
     id="path12" />
  <path
     style="fill:#000000;stroke-width:1.33333325"
     d="M 104.65234 8.9648438 C 101.62359 8.9332031 98.635 9.06 96 9 L 96 59.679688 C 98.56 59.666354 101.11935 59.666016 103.66602 59.666016 C 103.70602 52.439349 103.52018 45.187604 103.85352 37.960938 C 109.70685 44.694271 114.42729 52.413959 119.64062 59.640625 C 122.81396 59.667292 125.97315 59.666354 129.14648 59.679688 C 123.94648 52.559688 118.74586 45.439375 113.50586 38.359375 C 116.35919 36.999375 119.32005 35.933724 121.38672 33.400391 C 126.61339 27.093724 125.71935 16.666068 118.66602 12.052734 C 114.85768 9.5110678 109.70026 9.0175781 104.65234 8.9648438 z M 103.69336 16.146484 C 106.97336 16.399818 111.1594 16.267005 114.05273 18.013672 C 118.62607 20.933672 117.81336 29.37237 112.69336 31.345703 C 109.96003 32.439036 106.58635 32.280807 103.67969 32.494141 C 103.66635 27.054141 103.66669 21.599818 103.69336 16.146484 z "
     id="path14"
     transform="scale(0.75000002)" />
  <path
     style="fill:#000000;stroke-width:1.33333325"
     d="M 146.77148 8.96875 C 143.25648 8.9270833 139.72065 9.0533333 136.33398 9 C 136.33398 25.893333 136.32065 42.772683 136.33398 59.666016 C 146.48065 59.426016 157.74622 61.253307 166.21289 54.306641 C 175.90622 47.106641 178.08057 33.426771 173.25391 22.773438 C 170.12057 16.400104 164.05341 11.480599 157.08008 9.9472656 C 153.78008 9.220599 150.28648 9.0104167 146.77148 8.96875 z M 144.03906 16.226562 C 150.1724 16.373229 156.10698 16.294011 161.32031 20.027344 C 170.13365 26.547344 170.35987 41.613906 161.5332 48.253906 C 156.43987 52.627239 150.32034 52.254063 144.01367 52.414062 C 144.00034 40.347396 143.95906 28.293229 144.03906 16.226562 z "
     id="path16"
     transform="scale(0.75000002)" />
  <path
     d="M 138.75 6.75 C 140.67 6.75 142.58 6.75 144.50 6.75 C 144.50 19.42 144.51 32.09 144.50 44.76 C 142.58 44.75 140.67 44.75 138.75 44.75 C 138.74 32.09 138.75 19.42 138.75 6.75 Z"
     id="path18"
     fill="#000000" />
  <path
     d="M 273.00 6.75 C 280.00 6.75 287.00 6.75 294.00 6.75 C 294.00 8.58 294.00 10.42 294.00 12.25 C 288.92 12.25 283.84 12.25 278.75 12.25 C 278.75 15.25 278.75 18.25 278.76 21.24 C 283.67 21.25 288.59 21.24 293.50 21.25 C 293.50 23.08 293.50 24.92 293.50 26.75 C 288.59 26.76 283.67 26.75 278.76 26.76 C 278.75 30.92 278.75 35.08 278.75 39.25 C 283.83 39.25 288.92 39.25 294.00 39.25 C 294.00 41.08 294.00 42.92 294.00 44.76 C 287.00 44.75 280.00 44.75 273.00 44.75 C 273.00 32.09 273.00 19.42 273.00 6.75 Z"
     id="path20"
     fill="#000000" />
  <path
     d="M 301.50 6.75 C 308.50 6.75 315.50 6.75 322.50 6.75 C 322.50 8.58 322.50 10.42 322.50 12.25 C 317.42 12.25 312.33 12.25 307.25 12.25 C 307.25 15.25 307.25 18.24 307.25 21.24 C 312.17 21.25 317.08 21.25 322.00 21.24 C 322.00 23.08 322.00 24.92 322.00 26.75 C 317.09 26.75 312.17 26.75 307.25 26.75 C 307.25 30.92 307.25 35.08 307.25 39.24 C 312.33 39.25 317.42 39.25 322.50 39.25 C 322.50 41.08 322.50 42.92 322.50 44.75 C 315.50 44.76 308.50 44.75 301.50 44.75 C 301.50 32.09 301.50 19.42 301.50 6.75 Z"
     id="path22"
     fill="#000000" />
  <path
     style="fill:#000000;stroke-width:1.33333325"
     d="M 450.60352 8.9667969 C 447.03018 8.9201302 443.43333 9.0533333 440 9 C 440 25.893333 439.98667 42.772683 440 59.666016 C 449.86667 59.412682 460.9857 61.200364 469.3457 54.707031 C 479.9457 47.333698 482.14607 32.053151 476.05273 21.146484 C 472.7594 15.719818 467.30641 11.453672 461.06641 10.013672 C 457.72641 9.2403386 454.17685 9.0134635 450.60352 8.9667969 z M 447.67969 16.226562 C 453.69302 16.386562 459.14672 16.25362 464.38672 19.626953 C 473.69339 25.81362 474.25372 41.240417 465.40039 48.09375 C 460.21372 52.61375 454.13302 52.252448 447.67969 52.425781 C 447.66635 40.359115 447.66635 28.293229 447.67969 16.226562 z "
     id="path24"
     transform="scale(0.75000002)" />
  <path
     d="M 366.50 6.75 C 368.42 6.75 370.33 6.75 372.25 6.75 C 372.25 19.42 372.25 32.09 372.25 44.75 C 370.33 44.75 368.42 44.75 366.50 44.76 C 366.49 32.09 366.50 19.42 366.50 6.75 Z"
     id="path26"
     fill="#000000" />
  <path
     d="M 6.01 57.50 C 56.00 57.50 106.00 57.50 155.99 57.50 C 156.00 58.33 156.00 59.16 156.00 60.00 C 106.00 60.00 56.00 60.00 6.00 60.00 C 6.00 59.16 6.00 58.33 6.01 57.50 Z"
     id="path56"
     fill="#000000" />
  <path
     d="M 370.50 57.50 L 370.50 60.00 C 320.83 60.00 271.17 60.00 221.50 60.00 L 221.50 57.50 C 271.17 57.49 320.83 57.49 370.50 57.50 Z"
     id="path58"
     fill="#000000" />
  <path
     d="m 210.78331,49.805846 c 0.5663,-0.04854 1.1407,-0.03236 1.707,-0.03506 0.003,1.140697 0.003,2.278698 0.003,3.419395 1.1353,0 2.26791,0 3.40321,0 0,0.493493 0,0.98429 -0.003,1.475086 -1.13261,0 -2.26791,0 -3.40052,0 0.003,2.289484 -0.005,4.581665 -0.003,6.868453 0.0243,0.795522 0.0674,1.717788 0.82519,2.17892 0.79552,0.43956 1.70969,0.09169 2.51331,-0.12944 0.0216,0.509673 0.0458,1.016649 0.0701,1.526323 -1.24587,0.318208 -2.48365,0.604057 -3.68367,-0.04315 -1.04901,-0.515067 -1.46969,-1.604527 -1.45351,-2.720954 -0.0216,-2.556456 0,-5.115609 -0.008,-7.672065 -0.85755,-0.0081 -1.71779,-0.0081 -2.57534,-0.03236 -0.003,-0.469223 -0.005,-0.938446 -0.008,-1.407669 0.86025,-0.04045 1.72319,-0.04584 2.58343,-0.05124 0.0162,-1.12182 -0.0459,-2.254427 0.0297,-3.376248 z"
     id="path6-3"
     inkscape:connector-curvature="0"
     style="fill:#000000;stroke-width:0.26966837" />
  <path
     d="m 184.71447,49.776183 c 0.59597,0 1.18924,0.0027 1.78251,0.0054 0,1.135304 0,2.273304 0,3.408608 1.14609,0 2.28948,-0.0054 3.43557,0.01348 -0.003,0.485404 -0.003,0.96811 -0.003,1.453513 -1.14609,0.01079 -2.28949,0.0081 -3.43288,0.0081 0.005,2.381172 -0.0108,4.762343 0.003,7.143515 0.0135,0.679564 0.0647,1.475086 0.71462,1.863408 0.87372,0.50428 1.70969,0.145621 2.58612,-0.11326 0.0566,0.482706 0.11056,0.965412 0.1618,1.448119 -1.27823,0.515066 -2.80455,0.720014 -4.01267,-0.08629 -0.95463,-0.612147 -1.2189,-1.782508 -1.22969,-2.845001 -0.0162,-2.470163 0.003,-4.940325 -0.005,-7.410487 -0.84676,0 -1.69621,0 -2.54297,-0.0027 0.0108,-0.490796 0.0243,-0.978896 0.0431,-1.469692 0.83328,-0.0027 1.66655,-0.0027 2.49983,-0.0027 0,-1.138 0,-2.276001 0,-3.414001 z"
     id="path8-6"
     inkscape:connector-curvature="0"
     style="fill:#000000;stroke-width:0.26966837" />
  <path
     style="fill:#000000;stroke-width:0.35955781"
     d="M 221.61523 70.462891 C 219.25942 70.388809 216.85394 71.254828 215.04492 72.746094 C 215.49796 73.263858 215.94221 73.78981 216.38086 74.318359 C 218.32966 72.624842 221.30457 71.879734 223.69922 73.019531 C 225.27769 73.821346 225.43452 75.541391 225.60352 77.105469 C 222.95357 77.162998 220.10949 77.240623 217.55664 78.013672 C 216.30537 78.409185 215.12599 79.22508 214.57227 80.451172 C 213.79921 82.238174 214.03403 84.566253 215.49023 85.943359 C 217.61882 87.787891 220.83634 87.999532 223.25977 86.615234 C 224.27371 86.05792 224.91783 85.219339 225.66211 84.367188 C 225.70887 85.248103 225.76179 86.133065 225.80859 87.017578 C 226.51333 87.049938 227.21488 87.076083 227.91602 87.097656 C 227.60678 83.520055 227.82229 79.843936 227.73242 76.251953 C 227.65692 74.964736 227.38393 73.727555 226.56055 72.699219 C 225.63649 71.444363 224.1113 70.815212 222.61914 70.552734 C 222.28655 70.502846 221.95178 70.473474 221.61523 70.462891 z M 225.56836 78.982422 C 225.53596 80.532115 225.46451 81.961894 224.60156 83.306641 C 223.21367 85.582642 219.59919 86.301162 217.49219 84.632812 C 216.48183 83.874146 216.46356 82.630343 216.69727 81.494141 C 217.20065 80.307599 218.44143 79.775618 219.61719 79.484375 C 221.53003 79.045715 223.61596 79.000399 225.56836 78.982422 z "
     id="path10-7"
     transform="scale(0.75000002)" />
  <path
     d="m 182.18768,52.958269 c -0.0917,0.550124 -0.18877,1.102944 -0.28855,1.653067 -1.17845,-0.07281 -2.23016,-0.204948 -3.23063,0.550124 -1.1326,0.906085 -1.5398,2.551062 -1.54789,3.942551 -0.0162,2.06566 0.003,4.134016 -0.005,6.202372 -0.5663,0 -1.1326,0 -1.69891,0 -0.0324,-4.039632 0.0809,-8.087354 -0.0782,-12.124289 0.55282,0.0081 1.10564,0.01618 1.65846,0.03236 0.0135,0.676868 0.027,1.353735 0.0378,2.030603 0.60945,-0.827882 1.18924,-1.588347 2.17083,-1.984759 0.96542,-0.48001 1.94162,-0.466526 2.98254,-0.302029 z"
     id="path12-5"
     inkscape:connector-curvature="0"
     style="fill:#000000;stroke-width:0.26966837" />
  <path
     d="m 206.79492,54.991569 c -0.43417,0.347872 -0.86834,0.698441 -1.29981,1.04901 -0.53124,-0.668778 -1.04901,-1.264745 -1.90925,-1.499356 -1.10294,-0.385626 -2.92051,-0.196858 -3.54344,0.930355 -0.15101,0.547427 -0.22382,1.426546 0.27506,1.828352 0.90339,0.776645 2.30567,0.927659 3.42209,1.237778 1.08407,0.280455 2.32454,0.857545 2.90433,1.866105 0.75777,1.437332 0.31012,3.27647 -0.98429,4.24458 -2.46207,1.752844 -6.28327,1.08137 -8.01454,-1.396882 0.44765,-0.345176 0.89799,-0.687655 1.34564,-1.03283 1.17036,1.60183 3.15512,2.362295 5.0455,1.574863 1.1353,-0.366749 1.61531,-2.035996 0.75237,-2.885451 -0.81709,-0.755072 -1.93622,-0.957323 -2.97714,-1.218901 -1.21081,-0.275062 -2.66702,-0.765859 -3.28186,-1.941613 -0.55012,-1.275531 -0.29394,-3.085006 0.8953,-3.937158 2.29218,-1.653067 5.71967,-1.127213 7.37004,1.181148 z"
     id="path14-3"
     inkscape:connector-curvature="0"
     style="fill:#000000;stroke-width:0.26966837" />
  <path
     style="fill:#000000;stroke-width:0.26966837"
     d="m 193.49432,47.283899 a 1.2670921,1.2670921 0 0 0 -1.26723,1.266836 1.2670921,1.2670921 0 0 0 1.26723,1.26723 1.2670921,1.2670921 0 0 0 1.26723,-1.26723 1.2670921,1.2670921 0 0 0 -1.26723,-1.266836 z m -0.84337,5.906369 v 12.116116 h 1.72309 V 53.190268 Z"
     id="path16-5"
     inkscape:connector-curvature="0" />
</svg>
